<svg xmlns="http://www.w3.org/2000/svg" width="280" height="200" viewBox="0 0 280 200" fill="none">
  <rect x="25" y="82" width="244" height="14" rx="7" fill="#F6F6F7"></rect>
  <rect x="37" y="96" width="218" height="14" rx="7" fill="#F6F6F7"></rect>
  <rect x="51" y="124" width="197" height="14" rx="7" fill="#F6F6F7"></rect>
  <rect x="39" y="138" width="241" height="14" rx="7" fill="#F6F6F7"></rect>
  <rect y="110" width="260" height="14" rx="7" fill="#F6F6F7"></rect>
  <circle cx="42" cy="103" r="7" fill="white"></circle>
  <circle cx="58" cy="131" r="7" fill="white"></circle>
  <circle cx="241" cy="131" r="7" fill="white"></circle>
  <circle cx="248" cy="103" r="7" fill="white"></circle>
  <circle cx="273" cy="117" r="7" fill="#F6F6F7"></circle>
  <circle cx="26" cy="145" r="7" fill="#F6F6F7"></circle>
  <path d="M61 46C61 43.2386 63.2386 41 66 41H214C216.761 41 219 43.2386 219 46V199H61V46Z" fill="white" stroke="#CFD1D4" stroke-width="2"></path>
  <mask id="path-13-outside-1" maskUnits="userSpaceOnUse" x="151" y="93" width="90" height="78" fill="black">
    <rect fill="white" x="151" y="93" width="90" height="78"></rect>
    <path d="M192.665 97.9103C194.152 95.3632 197.848 95.3632 199.335 97.9103L237.472 163.23C238.966 165.79 237.111 169 234.137 169H157.863C154.889 169 153.034 165.79 154.528 163.23L192.665 97.9103Z"></path>
  </mask>
  <path d="M192.665 97.9103C194.152 95.3632 197.848 95.3632 199.335 97.9103L237.472 163.23C238.966 165.79 237.111 169 234.137 169H157.863C154.889 169 153.034 165.79 154.528 163.23L192.665 97.9103Z" fill="#E0E7F3"></path>
  <path d="M154.528 163.23L152.801 162.222H152.801L154.528 163.23ZM237.472 163.23L239.199 162.222L237.472 163.23ZM199.335 97.9103L197.608 98.9187L199.335 97.9103ZM192.665 97.9103L194.392 98.9187L192.665 97.9103ZM197.608 98.9187L235.745 164.239L239.199 162.222L201.062 96.9019L197.608 98.9187ZM234.137 167H157.863V171H234.137V167ZM156.255 164.239L194.392 98.9187L190.938 96.9019L152.801 162.222L156.255 164.239ZM157.863 167C156.417 167 155.547 165.452 156.255 164.239L152.801 162.222C150.52 166.129 153.36 171 157.863 171V167ZM235.745 164.239C236.453 165.452 235.583 167 234.137 167V171C238.64 171 241.48 166.129 239.199 162.222L235.745 164.239ZM201.062 96.9019C198.803 93.0327 193.197 93.0327 190.938 96.9019L194.392 98.9187C195.108 97.6938 196.892 97.6938 197.608 98.9187L201.062 96.9019Z" fill="#CFD1D4" mask="url(#path-13-outside-1)"></path>
  <circle cx="196" cy="153" r="5" fill="white" stroke="#CFD1D4" stroke-width="2"></circle>
  <path d="M202 127C202 122.132 201.094 119.105 199.91 117.326C198.754 115.588 197.312 115 196 115C194.688 115 193.246 115.588 192.09 117.326C190.906 119.105 190 122.132 190 127C190 131.857 190.902 136.226 192.183 139.349C192.824 140.913 193.543 142.121 194.255 142.92C194.984 143.738 195.586 144 196 144C196.414 144 197.016 143.738 197.745 142.92C198.457 142.121 199.176 140.913 199.817 139.349C201.098 136.226 202 131.857 202 127Z" fill="white" stroke="#CFD1D4" stroke-width="2"></path>
  <path d="M75.142 100.24C75.142 100.84 75.2795 101.387 75.5546 101.88C75.8428 102.36 76.2293 102.747 76.714 103.04C77.1988 103.32 77.7293 103.46 78.3058 103.46C78.9084 103.46 79.4455 103.333 79.9171 103.08C80.3888 102.827 80.8211 102.433 81.2141 101.9C81.2534 101.847 81.2993 101.82 81.3517 101.82C81.4172 101.82 81.4696 101.833 81.5089 101.86L82.5111 102.34C82.5766 102.38 82.6093 102.433 82.6093 102.5C82.6093 102.54 82.5897 102.593 82.5504 102.66C82.0002 103.487 81.3713 104.087 80.6639 104.46C79.9565 104.82 79.0984 105 78.0896 105C77.1071 105 76.2293 104.773 75.4564 104.32C74.6834 103.867 74.0808 103.233 73.6485 102.42C73.2162 101.593 73 100.66 73 99.62C73 98.5 73.2227 97.5133 73.6681 96.66C74.1136 95.8067 74.7162 95.1533 75.476 94.7C76.249 94.2333 77.1071 94 78.0503 94C79.0198 94 79.8713 94.22 80.6049 94.66C81.3386 95.0867 81.9019 95.7133 82.2949 96.54C82.701 97.3667 82.9041 98.3467 82.9041 99.48V99.56C82.9041 99.68 82.8844 99.7733 82.8451 99.84C82.8189 99.8933 82.7403 99.92 82.6093 99.92H75.3385C75.2075 99.92 75.142 100.027 75.142 100.24ZM80.5067 98.66C80.6377 98.66 80.7228 98.64 80.7621 98.6C80.8145 98.56 80.8407 98.4867 80.8407 98.38C80.8407 97.86 80.7294 97.3733 80.5067 96.92C80.2971 96.4667 79.9827 96.1067 79.5634 95.84C79.1573 95.56 78.6726 95.42 78.1093 95.42C77.5197 95.42 77.0023 95.5733 76.5568 95.88C76.1114 96.1733 75.7642 96.5667 75.5153 97.06C75.2795 97.54 75.1682 98.0667 75.1813 98.64L80.5067 98.66Z" fill="#CFD1D4"></path>
  <path d="M85.3021 104.8C85.0925 104.8 84.9877 104.693 84.9877 104.48V94.5C84.9877 94.3 85.0729 94.2 85.2432 94.2H86.7563C86.9135 94.2 86.9921 94.2867 86.9921 94.46V95.72C86.9921 95.8 87.0118 95.8467 87.0511 95.86C87.1035 95.8733 87.1559 95.8467 87.2083 95.78C87.693 95.2067 88.1908 94.7667 88.7018 94.46C89.2258 94.1533 89.7367 94 90.2345 94C90.6931 94 90.9223 94.0933 90.9223 94.28V95.84C90.9223 96 90.8503 96.0667 90.7062 96.04C90.4572 95.9733 90.1101 95.94 89.6647 95.94C89.2978 95.94 88.9114 96.0467 88.5052 96.26C88.0991 96.46 87.7585 96.7267 87.4834 97.06C87.2083 97.3933 87.0707 97.7333 87.0707 98.08V104.46C87.0707 104.687 86.9463 104.8 86.6974 104.8H85.3021Z" fill="#CFD1D4"></path>
  <path d="M93.0934 104.8C92.8838 104.8 92.779 104.693 92.779 104.48V94.5C92.779 94.3 92.8642 94.2 93.0345 94.2H94.5476C94.7048 94.2 94.7834 94.2867 94.7834 94.46V95.72C94.7834 95.8 94.8031 95.8467 94.8424 95.86C94.8948 95.8733 94.9472 95.8467 94.9996 95.78C95.4843 95.2067 95.9821 94.7667 96.4931 94.46C97.0171 94.1533 97.528 94 98.0258 94C98.4844 94 98.7136 94.0933 98.7136 94.28V95.84C98.7136 96 98.6416 96.0667 98.4975 96.04C98.2486 95.9733 97.9014 95.94 97.456 95.94C97.0891 95.94 96.7027 96.0467 96.2966 96.26C95.8904 96.46 95.5498 96.7267 95.2747 97.06C94.9996 97.3933 94.862 97.7333 94.862 98.08V104.46C94.862 104.687 94.7376 104.8 94.4887 104.8H93.0934Z" fill="#CFD1D4"></path>
  <path d="M104.802 105C103.806 105 102.922 104.773 102.149 104.32C101.389 103.853 100.799 103.207 100.38 102.38C99.9611 101.553 99.7514 100.613 99.7514 99.56C99.7514 98.48 99.9676 97.52 100.4 96.68C100.832 95.8267 101.428 95.1667 102.188 94.7C102.961 94.2333 103.839 94 104.821 94C105.817 94 106.695 94.24 107.455 94.72C108.228 95.1867 108.824 95.84 109.243 96.68C109.662 97.52 109.872 98.4733 109.872 99.54C109.872 100.593 109.656 101.533 109.223 102.36C108.804 103.187 108.208 103.833 107.435 104.3C106.675 104.767 105.797 105 104.802 105ZM104.841 103.5C105.758 103.5 106.472 103.153 106.983 102.46C107.494 101.753 107.749 100.767 107.749 99.5C107.749 98.2333 107.487 97.2467 106.963 96.54C106.452 95.82 105.738 95.46 104.821 95.46C103.904 95.46 103.184 95.82 102.66 96.54C102.136 97.2467 101.874 98.2333 101.874 99.5C101.874 100.753 102.136 101.733 102.66 102.44C103.184 103.147 103.911 103.5 104.841 103.5Z" fill="#CFD1D4"></path>
  <path d="M112.38 104.8C112.17 104.8 112.065 104.693 112.065 104.48V94.5C112.065 94.3 112.151 94.2 112.321 94.2H113.834C113.991 94.2 114.07 94.2867 114.07 94.46V95.72C114.07 95.8 114.089 95.8467 114.129 95.86C114.181 95.8733 114.234 95.8467 114.286 95.78C114.771 95.2067 115.269 94.7667 115.779 94.46C116.303 94.1533 116.814 94 117.312 94C117.771 94 118 94.0933 118 94.28V95.84C118 96 117.928 96.0667 117.784 96.04C117.535 95.9733 117.188 95.94 116.742 95.94C116.376 95.94 115.989 96.0467 115.583 96.26C115.177 96.46 114.836 96.7267 114.561 97.06C114.286 97.3933 114.148 97.7333 114.148 98.08V104.46C114.148 104.687 114.024 104.8 113.775 104.8H112.38Z" fill="#CFD1D4"></path>
  <path d="M83.6339 113.302L83.6192 113.32L83.6053 113.338L74.0297 125.873L74.0297 125.873L74.0263 125.878C73.7064 126.301 73.4578 126.651 73.3026 126.908L73.2826 126.941L73.2653 126.976C73.1062 127.292 73 127.645 73 128.024V130.638C73 131.027 73.1218 131.487 73.5182 131.824C73.8838 132.136 74.3256 132.205 74.6659 132.205H83.5585V136.087C83.5585 136.465 83.6613 136.929 84.0378 137.285C84.4038 137.632 84.8617 137.717 85.2244 137.717H89.3463C89.7098 137.717 90.2163 137.662 90.6181 137.329L90.6531 137.3L90.6852 137.269C91.0672 136.889 91.1707 136.4 91.1707 135.992V132.205H93.0561C93.3957 132.205 93.8372 132.131 94.1982 131.809C94.5805 131.467 94.6903 131.012 94.6903 130.638V127.929C94.6903 127.544 94.5552 127.1 94.1567 126.788C93.8045 126.512 93.392 126.457 93.0878 126.457H91.1707V113.913C91.1707 113.596 91.1021 113.171 90.7891 112.821C90.4572 112.45 90.0172 112.346 89.6634 112.346H85.7C85.3197 112.346 84.8906 112.388 84.519 112.565C84.1535 112.729 83.8562 113.037 83.6339 113.302ZM84.1781 132.205C84.1846 132.205 84.183 132.205 84.1748 132.205H84.1781ZM83.5902 121.727V126.457H80.1394L83.5902 121.727ZM114.627 136.389L114.627 136.389L114.635 136.383C116.283 135.284 117.55 133.749 118.443 131.816C119.361 129.854 119.805 127.605 119.805 125.094C119.805 122.583 119.361 120.325 118.444 118.344C117.532 116.374 116.259 114.807 114.611 113.685C112.957 112.558 111.078 112 109.007 112C106.936 112 105.049 112.558 103.376 113.682L103.376 113.682L103.371 113.685C101.722 114.809 100.449 116.387 99.5377 118.377C98.6214 120.358 98.1778 122.615 98.1778 125.126C98.1778 127.614 98.6103 129.85 99.5047 131.809L99.5076 131.815L99.5107 131.822C100.425 133.752 101.701 135.285 103.347 136.383L103.354 136.388L103.361 136.392C105.034 137.469 106.926 138 109.007 138C111.088 138 112.972 137.469 114.627 136.389ZM111.224 119.282L111.228 119.291L111.233 119.299C111.808 120.373 112.161 122.263 112.161 125.126C112.161 127.93 111.818 129.751 111.268 130.757C111.002 131.244 110.69 131.565 110.345 131.769C110 131.974 109.566 132.094 109.007 132.094C107.955 132.094 107.231 131.672 106.71 130.749C106.142 129.721 105.79 127.901 105.79 125.126C105.79 122.288 106.141 120.392 106.721 119.293C107.005 118.754 107.331 118.403 107.679 118.184C108.022 117.967 108.442 117.843 108.975 117.843C109.522 117.843 109.947 117.968 110.288 118.184C110.632 118.401 110.951 118.748 111.224 119.282ZM133.944 113.302L133.929 113.32L133.915 113.338L124.339 125.873L124.336 125.878C124.016 126.301 123.768 126.651 123.612 126.908L123.592 126.941L123.575 126.976C123.416 127.292 123.31 127.645 123.31 128.024V130.638C123.31 131.027 123.432 131.487 123.828 131.824C124.194 132.136 124.635 132.205 124.976 132.205H133.868V136.087C133.868 136.465 133.971 136.929 134.348 137.285C134.714 137.632 135.171 137.717 135.534 137.717H139.656C140.02 137.717 140.526 137.662 140.928 137.329L140.963 137.3L140.995 137.269C141.377 136.889 141.48 136.4 141.48 135.992V132.205H143.366C143.705 132.205 144.147 132.131 144.508 131.809C144.89 131.467 145 131.012 145 130.638V127.929C145 127.544 144.865 127.1 144.466 126.788C144.114 126.512 143.702 126.457 143.398 126.457H141.48V113.913C141.48 113.596 141.412 113.171 141.099 112.821C140.767 112.45 140.327 112.346 139.973 112.346H136.01C135.629 112.346 135.2 112.388 134.829 112.565C134.463 112.729 134.166 113.037 133.944 113.302ZM134.488 132.205C134.494 132.205 134.493 132.205 134.485 132.205H134.488ZM133.9 121.727V126.457H130.449L133.9 121.727Z" fill="white" stroke="#CFD1D4" stroke-width="2"></path>
  <rect x="62" y="60" width="158" height="2" fill="#CFD1D4"></rect>
  <rect x="30" y="198" width="220" height="2" rx="1" fill="#CFD1D4"></rect>
  <rect x="72" y="72" width="15" height="2" rx="1" fill="#CFD1D4"></rect>
  <rect x="72" y="157" width="44" height="2" rx="1" fill="#CFD1D4"></rect>
  <rect x="72" y="163" width="68" height="2" rx="1" fill="#CFD1D4"></rect>
  <rect x="195" width="2" height="79" rx="1" fill="#CFD1D4"></rect>
  <rect width="2" height="10" rx="1" transform="matrix(-1 0 0 1 232 24)" fill="#CFD1D4"></rect>
  <rect width="2" height="31" rx="1" transform="matrix(-1 0 0 1 232 73)" fill="#CFD1D4"></rect>
  <rect width="2" height="50" rx="1" transform="matrix(-1 0 0 1 172 23)" fill="#CFD1D4"></rect>
  <rect width="2" height="19" rx="1" transform="matrix(-1 0 0 1 172 92)" fill="#CFD1D4"></rect>
  <rect width="2" height="40" rx="1" transform="matrix(-1 0 0 1 185 50)" fill="#CFD1D4"></rect>
  <rect x="72" y="169" width="32" height="2" rx="1" fill="#CFD1D4"></rect>
  <rect x="94" y="72" width="15" height="2" rx="1" fill="#CFD1D4"></rect>
  <rect x="116" y="72" width="15" height="2" rx="1" fill="#CFD1D4"></rect>
  <rect x="138" y="72" width="15" height="2" rx="1" fill="#CFD1D4"></rect>
  <circle cx="70" cy="51" r="1" fill="white" stroke="#CFD1D4" stroke-width="2"></circle>
  <circle cx="78" cy="51" r="1" fill="white" stroke="#CFD1D4" stroke-width="2"></circle>
  <circle cx="86" cy="51" r="1" fill="#CFD1D4" stroke="#CFD1D4" stroke-width="2"></circle>
</svg>
