<svg width="41" height="32" viewBox="0 0 41 32" fill="none" xmlns="http://www.w3.org/2000/svg">
<path d="M39.3791 0V2.34731C36.0736 3.56088 33.4833 5.47705 31.6081 8.09581C29.7329 10.6826 28.7954 13.3812 28.7954 16.1916C28.7954 16.7984 28.8907 17.2455 29.0814 17.5329C29.2085 17.7246 29.3516 17.8204 29.5105 17.8204C29.6694 17.8204 29.9078 17.7086 30.2256 17.485C31.2426 16.7505 32.5298 16.3832 34.0872 16.3832C35.8988 16.3832 37.5039 17.1337 38.9023 18.6347C40.3008 20.1038 41 21.8603 41 23.9042C41 26.0439 40.1895 27.9281 38.5686 29.5569C36.9795 31.1856 35.0407 32 32.7523 32C30.0826 32 27.7783 30.8982 25.8395 28.6946C23.9008 26.491 22.9314 23.5369 22.9314 19.8323C22.9314 15.521 24.2504 11.6567 26.8884 8.23952C29.5264 4.82236 33.6899 2.07585 39.3791 0ZM16.4477 0V2.34731C13.1422 3.56088 10.5519 5.47705 8.67674 8.09581C6.80155 10.6826 5.86395 13.3812 5.86395 16.1916C5.86395 16.7984 5.9593 17.2455 6.15 17.5329C6.27713 17.7246 6.42016 17.8204 6.57907 17.8204C6.73798 17.8204 6.97636 17.7086 7.29419 17.485C8.31124 16.7505 9.59845 16.3832 11.1558 16.3832C12.9674 16.3832 14.5725 17.1337 15.9709 18.6347C17.3694 20.1038 18.0686 21.8603 18.0686 23.9042C18.0686 26.0439 17.2581 27.9281 15.6372 29.5569C14.0481 31.1856 12.1093 32 9.82093 32C7.15116 32 4.8469 30.8982 2.90814 28.6946C0.96938 26.491 0 23.5369 0 19.8323C0 15.521 1.31899 11.6567 3.95698 8.23952C6.59496 4.82236 10.7585 2.07585 16.4477 0Z" fill="white"/>
</svg>
