<svg width="200" height="160" viewBox="0 0 200 160" fill="none" xmlns="http://www.w3.org/2000/svg">
<rect width="200" height="160" fill="white"/>
<path d="M57.1088 14.5029C56.0882 10.5169 52.9771 7.40581 48.9911 6.38517C45.4947 5.48988 41.7052 5 37.747 5C33.7888 5 29.9993 5.48988 26.5029 6.38517C22.5169 7.40581 19.4058 10.5169 18.3852 14.5029C17.4899 17.9993 17 21.7888 17 25.747C17 29.7052 17.4899 33.4947 18.3852 36.9911C19.4058 40.9771 22.5169 44.0882 26.5029 45.1088C29.9993 46.0041 33.7888 46.494 37.747 46.494C41.7052 46.494 45.4947 46.0041 48.9911 45.1088C52.9771 44.0882 56.0882 40.9771 57.1088 36.9911C58.0041 33.4947 58.494 29.7052 58.494 25.747C58.494 21.7888 58.0041 17.9993 57.1088 14.5029Z" fill="#D33A2C"/>
<path d="M39.6289 22.8459H46.5948C48.0196 22.8981 48.8903 23.264 49.207 23.9436C49.4708 24.4402 49.6028 25.172 49.6028 26.139V34.764C49.6028 35.6004 49.2334 36.3975 48.4946 37.1555C46.2781 39.4293 42.9535 40.5663 38.5207 40.5663C34.5891 40.5663 31.1722 39.1026 28.2697 36.1754C25.3672 33.222 23.916 29.6674 23.916 25.5118C23.916 21.3561 25.3936 17.893 28.3489 15.1226C31.3041 12.326 34.787 10.9277 38.7977 10.9277C41.9113 10.9277 44.8533 11.947 47.6238 13.9857C48.3362 14.5084 48.6924 15.0964 48.6924 15.7499C48.6924 16.3771 48.389 17.1089 47.7821 17.9453C46.7531 19.3305 45.8164 20.0231 44.972 20.0231C44.4707 20.0231 43.6659 19.6703 42.5577 18.9646C41.4495 18.2328 40.1302 17.8669 38.5998 17.8669C36.5945 17.8669 34.8134 18.5726 33.2567 19.9839C31.6999 21.3692 30.9215 23.1987 30.9215 25.4725C30.9215 27.7203 31.7131 29.6413 33.2962 31.2356C34.8794 32.8038 36.6736 33.5879 38.679 33.5879C40.1302 33.5879 41.4363 33.3526 42.5973 32.8822V28.6089H39.4705C38.6526 28.6089 38.0721 28.5044 37.7291 28.2953C37.3861 28.0862 37.1618 27.7856 37.0562 27.3936C36.9507 26.9754 36.8979 26.4265 36.8979 25.747C36.8979 25.0413 36.9507 24.4794 37.0562 24.0612C37.1882 23.643 37.4124 23.3555 37.7291 23.1987C38.204 22.9635 38.8373 22.8459 39.6289 22.8459Z" fill="white"/>
<path d="M71.7462 36.9991C69.0699 36.9991 66.844 35.9801 65.0686 33.9422C63.3198 31.8775 62.4453 29.3703 62.4453 26.4207V19.3819C62.4453 18.7383 62.4586 18.2691 62.4851 17.9741C62.5381 17.6791 62.6573 17.3305 62.8428 16.9283C63.2138 16.2043 64.2472 15.8423 65.9431 15.8423C67.7979 15.8423 68.8844 16.3518 69.2023 17.3708C69.3613 17.7998 69.4408 18.4836 69.4408 19.4221V26.4609C69.4408 27.5603 69.7456 28.4184 70.355 29.0351C70.991 29.6519 71.8257 29.9602 72.8591 29.9602C73.919 29.9602 74.767 29.6385 75.4029 28.9949C76.0654 28.3514 76.3966 27.5067 76.3966 26.4609V19.3416C76.3966 18.7249 76.4098 18.2691 76.4363 17.9741C76.4893 17.6523 76.6218 17.2903 76.8338 16.8881C77.1783 16.1909 78.1985 15.8423 79.8944 15.8423C81.5637 15.8423 82.5839 16.2043 82.9549 16.9283C83.1404 17.3305 83.2464 17.6925 83.2729 18.0143C83.3259 18.3093 83.3524 18.7651 83.3524 19.3819V33.6204C83.3524 34.2104 83.3259 34.6662 83.2729 34.988C83.2464 35.2829 83.1271 35.6181 82.9151 35.9935C82.5177 36.6907 81.4975 37.0393 79.8546 37.0393C78.2382 37.0393 77.2445 36.7175 76.8736 36.074C76.6086 35.6181 76.4761 35.0684 76.4761 34.4249C76.3701 34.6126 76.1316 34.8807 75.7606 35.2293C75.3897 35.5779 75.0319 35.8729 74.6875 36.1142C73.7865 36.7041 72.8061 36.9991 71.7462 36.9991Z" fill="#2F2F2F"/>
<path d="M98.7125 23.0018L96.1289 22.8409V28.3916C96.1289 29.1156 96.2349 29.6385 96.4469 29.9602C96.6854 30.282 97.1094 30.4429 97.7188 30.4429C98.3548 30.4429 98.8317 30.4697 99.1497 30.5233C99.4942 30.5502 99.8519 30.6708 100.223 30.8853C100.832 31.2339 101.137 32.1322 101.137 33.5802C101.137 35.2695 100.766 36.3019 100.024 36.6773C99.6267 36.865 99.269 36.9857 98.951 37.0393C98.6595 37.0661 98.2223 37.0795 97.6393 37.0795C94.8835 37.0795 92.7902 36.4494 91.3593 35.1891C89.9284 33.9288 89.2129 31.797 89.2129 28.7938V22.8409C88.7094 22.9214 88.1662 22.9616 87.5833 22.9616C87.0003 22.9616 86.5101 22.7337 86.1126 22.2778C85.7416 21.822 85.5562 21.0444 85.5562 19.945C85.5562 18.8456 85.6224 18.0545 85.7549 17.5719C85.8874 17.0624 86.0729 16.7004 86.3114 16.4859C86.7353 16.1373 87.2653 15.963 87.9012 15.963L89.2129 16.1239V11.981C89.2129 11.3643 89.2262 10.9084 89.2527 10.6135C89.3056 10.3185 89.4381 9.99673 89.6501 9.64814C89.9946 8.97778 91.0148 8.6426 92.7107 8.6426C94.5125 8.6426 95.5857 9.13867 95.9302 10.1308C96.0627 10.5598 96.1289 11.2436 96.1289 12.1821V16.1239C97.2948 16.0166 98.1693 15.963 98.7522 15.963C99.3617 15.963 99.8122 15.9898 100.104 16.0434C100.422 16.0703 100.779 16.1909 101.177 16.4054C101.866 16.754 102.21 17.7864 102.21 19.5025C102.21 21.1918 101.853 22.2242 101.137 22.5996C100.74 22.7873 100.382 22.908 100.064 22.9616C99.7724 22.9884 99.322 23.0018 98.7125 23.0018Z" fill="#2F2F2F"/>
<path d="M123.82 23.9672C123.82 25.6029 123.41 26.8229 122.588 27.6274C121.793 28.405 120.906 28.7938 119.925 28.7938H110.505C110.505 29.5446 110.942 30.1747 111.817 30.6842C112.691 31.1937 113.566 31.4484 114.44 31.4484C115.977 31.4484 117.183 31.2876 118.057 30.9658L118.494 30.8049C119.13 30.5099 119.66 30.3625 120.084 30.3625C120.932 30.3625 121.661 30.9658 122.27 32.1724C122.615 32.8964 122.787 33.5132 122.787 34.0226C122.787 36.4092 119.965 37.6024 114.321 37.6024C112.36 37.6024 110.611 37.2672 109.074 36.5969C107.564 35.8997 106.385 34.988 105.537 33.8618C103.867 31.6898 103.033 29.2631 103.033 26.5816C103.033 23.2029 104.106 20.5081 106.252 18.497C108.425 16.4591 111.128 15.4401 114.36 15.4401C118.044 15.4401 120.747 16.754 122.469 19.3819C123.37 20.7762 123.82 22.3047 123.82 23.9672ZM115.434 25.1336C116.441 25.1336 116.944 24.7046 116.944 23.8465C116.944 23.2298 116.706 22.7337 116.229 22.3583C115.778 21.9829 115.116 21.7952 114.241 21.7952C113.393 21.7952 112.545 22.1572 111.697 22.8812C110.849 23.5783 110.426 24.3292 110.426 25.1336H115.434Z" fill="#2F2F2F"/>
<path d="M138.059 15.8825C140.709 15.8825 142.909 16.9149 144.658 18.9796C146.433 21.0176 147.321 23.5113 147.321 26.4609V33.54C147.321 34.1567 147.294 34.626 147.241 34.9478C147.215 35.2427 147.109 35.5779 146.923 35.9533C146.552 36.6773 145.519 37.0393 143.823 37.0393C141.941 37.0393 140.855 36.5432 140.564 35.5511C140.405 35.0952 140.325 34.4115 140.325 33.4998V26.4207C140.325 25.3213 140.007 24.4632 139.371 23.8465C138.762 23.2298 137.927 22.9214 136.867 22.9214C135.834 22.9214 134.986 23.2432 134.323 23.8867C133.687 24.5303 133.369 25.3749 133.369 26.4207V33.54C133.369 34.1567 133.343 34.626 133.29 34.9478C133.263 35.2427 133.144 35.5779 132.932 35.9533C132.588 36.6773 131.567 37.0393 129.872 37.0393C128.202 37.0393 127.182 36.6773 126.811 35.9533C126.626 35.5511 126.506 35.2025 126.453 34.9075C126.427 34.5858 126.414 34.1165 126.414 33.4998V19.2612C126.414 18.6713 126.427 18.2288 126.453 17.9339C126.506 17.6121 126.639 17.2635 126.851 16.8881C127.222 16.2177 128.242 15.8825 129.911 15.8825C131.528 15.8825 132.521 16.1909 132.892 16.8077C133.157 17.2635 133.29 17.8132 133.29 18.4568C133.396 18.2691 133.634 18.0009 134.005 17.6523C134.376 17.3037 134.734 17.0222 135.078 16.8077C135.979 16.1909 136.973 15.8825 138.059 15.8825Z" fill="#2F2F2F"/>
<path d="M150.518 19.4221C150.518 18.8053 150.531 18.3495 150.558 18.0545C150.611 17.7328 150.73 17.3708 150.916 16.9685C151.286 16.2714 152.32 15.9228 154.016 15.9228C155.288 15.9228 156.189 16.1507 156.719 16.6065C157.169 16.9819 157.408 17.5585 157.434 18.3361C157.461 18.6042 157.474 18.993 157.474 19.5025V33.5802C157.474 34.1969 157.447 34.6662 157.394 34.988C157.368 35.2829 157.249 35.6315 157.037 36.0337C156.692 36.7309 155.672 37.0795 153.976 37.0795C152.307 37.0795 151.286 36.7175 150.916 35.9935C150.73 35.5913 150.611 35.2427 150.558 34.9478C150.531 34.6528 150.518 34.1835 150.518 33.54V19.4221ZM157.037 11.981C156.851 12.3564 156.507 12.6246 156.003 12.7855C155.5 12.9463 154.824 13.0268 153.976 13.0268C153.155 13.0268 152.492 12.9463 151.989 12.7855C151.485 12.6246 151.128 12.343 150.916 11.9408C150.73 11.5386 150.611 11.19 150.558 10.895C150.531 10.5732 150.518 10.104 150.518 9.48726C150.518 8.87052 150.531 8.41467 150.558 8.11971C150.611 7.79793 150.73 7.44934 150.916 7.07394C151.286 6.34994 152.32 5.98795 154.016 5.98795C155.685 5.98795 156.692 6.34994 157.037 7.07394C157.249 7.47616 157.368 7.83816 157.394 8.15993C157.447 8.45489 157.474 8.91074 157.474 9.52748C157.474 10.1442 157.447 10.6135 157.394 10.9352C157.368 11.2302 157.249 11.5788 157.037 11.981Z" fill="#2F2F2F"/>
<path d="M175.157 26.4609L179.569 30.9658C180.523 31.9311 181 32.7624 181 33.4595C181 34.1299 180.523 34.9478 179.569 35.9131C178.615 36.8516 177.806 37.3208 177.144 37.3208C176.482 37.3208 175.673 36.8382 174.719 35.8729L170.347 31.4082L165.935 35.8729C164.981 36.8382 164.173 37.3208 163.511 37.3208C162.875 37.3208 162.067 36.8516 161.086 35.9131C160.132 34.9478 159.655 34.1299 159.655 33.4595C159.655 32.7624 160.132 31.9311 161.086 30.9658L165.498 26.4609L161.086 21.9561C160.132 20.9907 159.655 20.1729 159.655 19.5025C159.655 18.8053 160.132 17.9741 161.086 17.0088C162.067 16.0434 162.875 15.5608 163.511 15.5608C164.173 15.5608 164.981 16.0434 165.935 17.0088L170.347 21.5136L174.719 17.0088C175.673 16.0434 176.482 15.5608 177.144 15.5608C177.806 15.5608 178.615 16.0434 179.569 17.0088C180.523 17.9741 181 18.8053 181 19.5025C181 20.1729 180.523 20.9907 179.569 21.9561L175.157 26.4609Z" fill="#2F2F2F"/>
<path d="M50.1723 113.956C55.7133 105.885 60.9463 102.827 62.7317 101.666C66.2409 102.522 67.3121 111.828 67.9031 112.122C68.6419 112.489 70.1195 116.708 69.3807 119.643C68.6419 122.578 65.8715 124.963 63.6551 125.88C61.882 126.614 60.4537 126.186 59.9612 125.88C55.467 127.959 46.3676 132.117 45.9244 132.117C45.3703 132.117 45.0009 130.649 45.0009 127.531C45.0009 124.412 46.4785 119.337 50.1723 113.956Z" fill="url(#paint0_linear)"/>
<rect width="22.3799" height="30.0844" transform="matrix(-1 0 0 1 104.437 95.0616)" fill="#2E5EB2"/>
<path d="M81.5958 146.754L81.4298 146.919C81.4298 146.919 81.3091 147.321 80.932 147.085C80.4342 147.085 80.1802 147.012 80.1802 147.012C80.1802 147.012 79.3855 146.353 77.8765 145.532C76.3675 144.712 75.3348 142.397 75.3348 142.397C75.3348 142.397 56.2147 142.535 50.0765 136.988C43.9382 131.44 44.548 129.869 45.8659 127.937C47.1838 126.004 54.3977 119.922 60.1892 125.83C65.9808 131.739 75.3722 140.411 75.3722 140.411L80.6976 141.924L82.0547 144.25C82.0547 144.25 81.8628 145.596 81.7386 146.381" fill="url(#paint1_linear)"/>
<path d="M45.5495 128.448C45.4142 129.433 45.1365 129.873 45.935 130.969C47.1649 132.645 53.5585 136.594 57.118 138.204C62.7509 140.75 75.3259 141.792 75.4512 142.023C74.4272 142.027 56.1044 142.009 50.1031 136.772C44.4591 131.831 44.4922 130.135 45.5495 128.448Z" fill="#EC9568"/>
<path d="M66.0484 95.8995C77.4034 88.7569 89.7351 89.8557 95.7178 91.1377C91.1392 104.141 81.8354 130.734 81.2494 133.078C80.5168 136.008 82.4211 140.372 76.1841 133.768C72.2297 129.581 69.2717 127.157 67.5624 122.945C67.9287 122.151 69.3084 118.023 68.4293 115.679C67.3304 112.749 66.0484 110.734 62.5687 109.086C59.0889 107.438 55.4261 108.353 54.1441 108.903C55.9755 105.423 59.8215 99.8164 66.0484 95.8995Z" fill="#2E5EB2"/>
<path d="M113.58 119.178C114.615 119.86 115.674 120.474 116.755 121.008C125.795 125.47 137.887 128.938 149.34 127.599C150.122 127.394 150.756 127.189 151.246 126.989C151.679 126.724 152.107 126.372 152.528 125.941C152.527 125.935 152.526 125.93 152.525 125.924C152.424 125.458 145.954 116.839 142.731 112.588C142.943 112 143.07 110.4 141.89 108.703C140.415 106.581 137.262 104.213 133.989 104.108C130.716 104.003 126.589 106.524 126.369 107.385C126.317 107.589 124.873 107.538 122.867 107.467C118.12 107.297 110.223 107.016 110.148 109.748C110.593 110.187 110.856 111.249 111.201 112.643C111.654 114.47 112.248 116.868 113.58 119.178Z" fill="url(#paint2_linear)"/>
<path d="M125.572 122.089L123.924 118.243L94.6209 116.778L73.7425 127.4C74.1088 129.232 76.1234 134.177 81.2514 139.305C87.6614 145.715 90.5917 152.491 88.5772 155.421C86.9655 157.766 83.0218 156.887 81.2514 156.154C82.4724 157.436 86.0498 160 90.5917 160C96.2692 160 104.328 159.267 114.767 148.096C123.118 139.158 125.45 127.034 125.572 122.089Z" fill="#2E5EB2"/>
<path d="M105.068 90.2319C112.387 90.6234 122.884 92.6489 129.602 97.9141C132.342 100.061 134.336 101.835 136.905 104.784C131.479 104.785 130.833 105.763 128.686 107.438C126.833 109.301 125.673 111.546 125.207 114.58C124.84 116.961 125.756 119.464 126.122 120.258C124.335 131.874 119.584 133.759 117.313 134.661C117.256 134.683 117.202 134.705 117.148 134.726C114.401 135.825 112.936 136.008 112.203 133.078C111.617 130.734 102.314 104.141 97.735 91.1378C99.6236 90.7331 102.145 90.3466 105.068 90.2319Z" fill="#2E5EB2"/>
<path d="M90.288 112.508C90.9357 109.974 92.9101 107.997 95.4397 107.348C97.6586 106.779 100.064 106.468 102.576 106.468C105.088 106.468 107.492 106.779 109.711 107.348C112.241 107.997 114.215 109.974 114.863 112.508C115.431 114.73 115.742 117.139 115.742 119.655C115.742 122.171 115.431 124.58 114.863 126.802C114.215 129.336 112.241 131.314 109.711 131.962C107.492 132.531 105.088 132.843 102.576 132.843C100.064 132.843 97.6586 132.531 95.4397 131.962C92.9101 131.314 90.9357 129.336 90.288 126.802C89.7198 124.58 89.4089 122.171 89.4089 119.655C89.4089 117.139 89.7198 114.73 90.288 112.508Z" fill="white"/>
<path d="M103.954 117.801H108.38C109.285 117.834 109.838 118.068 110.039 118.503C110.207 118.82 110.291 119.288 110.291 119.906V125.419C110.291 125.954 110.056 126.463 109.587 126.948C108.179 128.401 106.067 129.128 103.25 129.128C100.752 129.128 98.5816 128.193 96.7376 126.321C94.8937 124.434 93.9717 122.161 93.9717 119.505C93.9717 116.849 94.9104 114.635 96.7879 112.864C98.6654 111.077 100.878 110.183 103.426 110.183C105.404 110.183 107.273 110.834 109.034 112.137C109.486 112.472 109.713 112.847 109.713 113.265C109.713 113.666 109.52 114.134 109.134 114.669C108.48 115.554 107.885 115.997 107.349 115.997C107.03 115.997 106.519 115.771 105.815 115.32C105.111 114.852 104.273 114.618 103.301 114.618C102.027 114.618 100.895 115.069 99.9059 115.972C98.9169 116.857 98.4224 118.027 98.4224 119.48C98.4224 120.917 98.9253 122.145 99.9311 123.164C100.937 124.166 102.077 124.668 103.351 124.668C104.273 124.668 105.103 124.517 105.84 124.216V121.485H103.854C103.334 121.485 102.965 121.418 102.747 121.284C102.529 121.151 102.387 120.959 102.32 120.708C102.253 120.441 102.219 120.09 102.219 119.655C102.219 119.204 102.253 118.845 102.32 118.578C102.404 118.311 102.546 118.127 102.747 118.027C103.049 117.876 103.451 117.801 103.954 117.801Z" fill="#D33A2C"/>
<path d="M102.177 77.5125C101.888 78.9676 99.3729 83.3644 110.308 93.5035C118.151 100.772 93.1787 101.648 84.4694 90.5932C84.4694 90.5932 97.8263 88.8486 93.4677 64.4239C90.1949 46.1014 102.177 77.5125 102.177 77.5125Z" fill="#FED0B2"/>
<path d="M159.097 94.2566L135.563 120.361C135.563 120.361 132.448 127.52 143.631 128.254C154.813 128.989 157.779 122.014 159.208 118.009C160.638 114.005 160.464 96.1087 160.464 96.1087L164.67 92.4296L166.893 85.0873C166.893 85.0873 165.116 85.6628 164.41 87.8234C163.703 89.9841 162.753 90.6849 162.753 90.6849L160.501 91.4521L160.231 89.3325L159.494 87.7303L158.753 91.4178L159.097 94.2566Z" fill="url(#paint3_linear)"/>
<path d="M93.975 78.3339C94.5296 74.8056 94.5061 70.268 93.4673 64.4317C90.2022 46.1014 102.177 77.5125 102.177 77.5125C101.927 78.7564 100.044 82.1674 106.402 89.5058C101.239 88.3949 96.7869 84.225 93.975 78.3339Z" fill="#F7B68B"/>
<path d="M104.788 56.577C104.788 56.577 107.693 74.6022 106.53 78.6782C105.366 82.7464 101.905 83.7009 97.8203 78.0993C89.9858 67.3421 90.2748 58.9084 92.5947 57.4533C94.9146 55.9981 101.304 50.4748 104.788 56.577Z" fill="url(#paint4_linear)"/>
<path d="M99.8532 59.1979C102.673 59.6517 107.11 61.232 110.015 53.9641C112.921 46.6961 106.532 45.2409 103.337 49.0196C100.142 52.7984 100.431 54.543 102.47 52.7984C104.501 51.0537 97.0694 45.7558 94.1715 49.245C91.2658 52.7343 94.3464 58.0322 95.7992 57.7428C97.2521 57.4533 91.1738 51.8626 89.432 54.4834C86.4386 57.7428 87.957 60.6531 89.9957 61.811C92.0265 62.9766 94.3464 58.9006 92.3155 60.3558C90.2846 61.811 89.6988 69.6579 92.3155 70.8235C94.9244 71.9892 94.9244 69.9551 92.6045 67.6238C90.2847 65.3002 93.4716 60.4966 94.6354 65.1516C94.737 65.5506 95.5024 68.2027 95.5024 68.2027L97.2443 69.6579C97.2443 69.6579 97.2443 64.424 96.0805 62.5307C93.4638 58.2826 93.5418 58.1809 99.8532 59.1979Z" fill="#2F2F2F"/>
<defs>
<linearGradient id="paint0_linear" x1="59.2225" y1="117.808" x2="60.6612" y2="124.872" gradientUnits="userSpaceOnUse">
<stop stop-color="#FED0B2"/>
<stop offset="1" stop-color="#F7B68B"/>
</linearGradient>
<linearGradient id="paint1_linear" x1="75.8248" y1="132.37" x2="52.2561" y2="144.729" gradientUnits="userSpaceOnUse">
<stop stop-color="#FED0B2"/>
<stop offset="1" stop-color="#F7B68B"/>
</linearGradient>
<linearGradient id="paint2_linear" x1="134.361" y1="115.213" x2="141.498" y2="112.067" gradientUnits="userSpaceOnUse">
<stop stop-color="#FED0B2"/>
<stop offset="1" stop-color="#F7B68B"/>
</linearGradient>
<linearGradient id="paint3_linear" x1="144.186" y1="116.221" x2="173.347" y2="110.817" gradientUnits="userSpaceOnUse">
<stop stop-color="#FED0B2"/>
<stop offset="1" stop-color="#F7B68B"/>
</linearGradient>
<linearGradient id="paint4_linear" x1="98.9835" y1="53.7676" x2="98.9835" y2="82.0163" gradientUnits="userSpaceOnUse">
<stop stop-color="#FFD0B0"/>
<stop offset="1" stop-color="#FFD4B8"/>
</linearGradient>
</defs>
</svg>
